<mxfile host="Electron" modified="2023-09-24T08:27:05.599Z" agent="Mozilla/5.0 (Windows NT 10.0; Win64; x64) AppleWebKit/537.36 (KHTML, like Gecko) draw.io/21.5.1 Chrome/112.0.5615.204 Electron/24.6.0 Safari/537.36" etag="p1fqQk67lzVzhOFbPSWx" version="21.5.1" type="device">
  <diagram name="Page-1" id="pazxvdb_-VQVQj2k6pjy">
    <mxGraphModel dx="1036" dy="573" grid="1" gridSize="10" guides="1" tooltips="1" connect="1" arrows="1" fold="1" page="1" pageScale="1" pageWidth="1169" pageHeight="1654" math="0" shadow="0">
      <root>
        <mxCell id="0" />
        <mxCell id="1" parent="0" />
        <mxCell id="4tAjdOZ-st2yQ9ejm-Wt-1" value="&lt;p style=&quot;margin:0px;margin-top:4px;margin-left:10px;text-align:left;&quot;&gt;&lt;b&gt;std&lt;/b&gt; PrintControl&lt;/p&gt;" style="html=1;shape=mxgraph.sysml.package;labelX=108.8;align=left;spacingLeft=10;overflow=fill;recursiveResize=0;container=0;" vertex="1" parent="1">
          <mxGeometry x="40" y="50" width="730" height="790" as="geometry" />
        </mxCell>
        <mxCell id="4tAjdOZ-st2yQ9ejm-Wt-2" value="/ ..." style="edgeStyle=orthogonalEdgeStyle;rounded=0;orthogonalLoop=1;jettySize=auto;html=1;align=left;" edge="1" parent="1" source="4tAjdOZ-st2yQ9ejm-Wt-3">
          <mxGeometry x="0.0435" y="12" relative="1" as="geometry">
            <mxPoint as="offset" />
            <mxPoint x="194.5" y="367" as="targetPoint" />
          </mxGeometry>
        </mxCell>
        <mxCell id="4tAjdOZ-st2yQ9ejm-Wt-3" value="" style="shape=ellipse;html=1;fillColor=strokeColor;fontSize=18;fontColor=#ffffff;" vertex="1" parent="1">
          <mxGeometry x="174.5" y="190" width="40" height="40" as="geometry" />
        </mxCell>
        <mxCell id="4tAjdOZ-st2yQ9ejm-Wt-4" value="&lt;p style=&quot;margin:0px;margin-top:4px;text-align:center;&quot;&gt;&lt;b&gt;&amp;lt;&amp;lt;interface&amp;gt;&amp;gt;&lt;/b&gt;&lt;/p&gt;&lt;hr&gt;&lt;p&gt;&lt;/p&gt;&lt;p style=&quot;margin:0px;margin-left:8px;text-align:left;&quot;&gt;&lt;b style=&quot;background-color: initial;&quot;&gt;... (vul hier alleen het deel van de interface in waar in onderststaand std op wordt gewacht,&lt;br&gt;&amp;nbsp; &amp;nbsp; &amp;nbsp; dus bijvoorbeeld niet het deel waar alleen ProcessG op wacht)&lt;/b&gt;&lt;/p&gt;" style="shape=mxgraph.sysml.simpleState;html=1;overflow=fill;whiteSpace=wrap;align=center;" vertex="1" parent="1">
          <mxGeometry x="171.5" y="80" width="548.5" height="70" as="geometry" />
        </mxCell>
        <mxCell id="4tAjdOZ-st2yQ9ejm-Wt-5" style="edgeStyle=orthogonalEdgeStyle;rounded=0;orthogonalLoop=1;jettySize=auto;html=1;" edge="1" parent="1" source="4tAjdOZ-st2yQ9ejm-Wt-6" target="4tAjdOZ-st2yQ9ejm-Wt-4">
          <mxGeometry relative="1" as="geometry" />
        </mxCell>
        <mxCell id="4tAjdOZ-st2yQ9ejm-Wt-6" value="" style="shape=ellipse;html=1;fillColor=strokeColor;fontSize=18;fontColor=#ffffff;" vertex="1" parent="1">
          <mxGeometry x="80" y="95" width="40" height="40" as="geometry" />
        </mxCell>
        <mxCell id="4tAjdOZ-st2yQ9ejm-Wt-7" value="" style="line;strokeWidth=1;fillColor=none;align=left;verticalAlign=middle;spacingTop=-1;spacingLeft=3;spacingRight=3;rotatable=0;labelPosition=right;points=[];portConstraint=eastwest;strokeColor=inherit;" vertex="1" parent="1">
          <mxGeometry x="40" y="170" width="730" height="8" as="geometry" />
        </mxCell>
        <mxCell id="4tAjdOZ-st2yQ9ejm-Wt-8" value="taQueue is a queue of pointers to TochArea objects." style="shape=note;size=15;align=left;spacingLeft=10;html=1;whiteSpace=wrap;" vertex="1" parent="1">
          <mxGeometry x="435.5" y="207" width="300" height="30" as="geometry" />
        </mxCell>
        <mxCell id="4tAjdOZ-st2yQ9ejm-Wt-9" value="lokale convenience functies:&lt;br style=&quot;border-color: var(--border-color);&quot;&gt;Zelfde als bij HoofdmenuControl:&lt;br style=&quot;border-color: var(--border-color);&quot;&gt;clearScreen(),&amp;nbsp;toonText(int x,y; string&amp;amp; str) en &lt;br&gt;drawTouchArea(int x,y; ta:TouchArea&amp;amp;))" style="shape=note;size=15;align=left;spacingLeft=10;html=1;whiteSpace=wrap;" vertex="1" parent="1">
          <mxGeometry x="475.5" y="242" width="270" height="80" as="geometry" />
        </mxCell>
        <mxCell id="4tAjdOZ-st2yQ9ejm-Wt-10" value="ProcessG" style="rounded=0;whiteSpace=wrap;html=1;" vertex="1" parent="1">
          <mxGeometry x="424.5" y="672" width="150" height="20" as="geometry" />
        </mxCell>
        <mxCell id="4tAjdOZ-st2yQ9ejm-Wt-11" value="ProcessM" style="rounded=0;whiteSpace=wrap;html=1;" vertex="1" parent="1">
          <mxGeometry x="424.5" y="752" width="150" height="20" as="geometry" />
        </mxCell>
        <mxCell id="4tAjdOZ-st2yQ9ejm-Wt-12" value="" style="shape=mxgraph.sysml.actFinal;html=1;verticalLabelPosition=bottom;labelBackgroundColor=#ffffff;verticalAlign=top;" vertex="1" parent="1">
          <mxGeometry x="665.5" y="472" width="40" height="40" as="geometry" />
        </mxCell>
        <mxCell id="4tAjdOZ-st2yQ9ejm-Wt-13" value="&lt;font style=&quot;font-size: 20px;&quot;&gt;...&lt;/font&gt;" style="text;html=1;strokeColor=none;fillColor=none;align=center;verticalAlign=middle;whiteSpace=wrap;rounded=0;fontSize=13;" vertex="1" parent="1">
          <mxGeometry x="330" y="530" width="60" height="30" as="geometry" />
        </mxCell>
        <mxCell id="4tAjdOZ-st2yQ9ejm-Wt-14" value="" style="html=1;shape=mxgraph.sysml.callBehAct;whiteSpace=wrap;align=center;fontColor=none;noLabel=1;labelBorderColor=none;labelBackgroundColor=none;strokeColor=default;fillColor=default;strokeWidth=1;" vertex="1" parent="1">
          <mxGeometry x="415" y="692" width="170" height="40" as="geometry" />
        </mxCell>
        <mxCell id="4tAjdOZ-st2yQ9ejm-Wt-15" value="" style="html=1;shape=mxgraph.sysml.callBehAct;whiteSpace=wrap;align=center;fontColor=none;noLabel=1;labelBorderColor=none;labelBackgroundColor=none;strokeColor=default;fillColor=default;strokeWidth=1;" vertex="1" parent="1">
          <mxGeometry x="415" y="772" width="170" height="40" as="geometry" />
        </mxCell>
        <mxCell id="4tAjdOZ-st2yQ9ejm-Wt-16" style="rounded=0;orthogonalLoop=1;jettySize=auto;html=1;endArrow=none;endFill=0;dashed=1;" edge="1" parent="1" source="4tAjdOZ-st2yQ9ejm-Wt-17">
          <mxGeometry relative="1" as="geometry">
            <mxPoint x="524" y="812" as="targetPoint" />
          </mxGeometry>
        </mxCell>
        <mxCell id="4tAjdOZ-st2yQ9ejm-Wt-17" value="Truc om zo&#39;n rounded rect met &quot;subdued fork&quot; in drawio te maken: Kies een sysml activity met subdued fork. Verwijder de tekst." style="shape=note;size=15;align=left;spacingLeft=10;html=1;whiteSpace=wrap;" vertex="1" parent="1">
          <mxGeometry x="500" y="870" width="270" height="70" as="geometry" />
        </mxCell>
      </root>
    </mxGraphModel>
  </diagram>
</mxfile>
